<?xml version="1.0" encoding="UTF-8"?><!DOCTYPE svg PUBLIC "-//W3C//DTD SVG 1.1//EN" "http://www.w3.org/Graphics/SVG/1.1/DTD/svg11.dtd"><svg xmlns="http://www.w3.org/2000/svg" xmlns:xlink="http://www.w3.org/1999/xlink"><symbol id="check-box"><g fill="none"><path stroke="#CDCDCD" d="M.5.5h29v29H.5z"/></g></symbol><symbol id="checked"><g fill="none"><path stroke="#CDCDCD" d="M.5.5h29v29H.5z"/><path d="m13 19.72-5.7-6.45-1.05 1.19L13 22.09 24.25 9.37 23.2 8.09 13 19.72Z" fill="#68B738"/></g></symbol><symbol id="radio-box"><g fill="none"><path d="M40.417 20c0 10.77-8.72 19.5-19.475 19.5S1.468 30.77 1.468 20 10.188.5 20.942.5C31.698.5 40.418 9.23 40.418 20Z" stroke="#CDCDCD"/></g></symbol><symbol id="radio-checked"><g fill="none"><path d="M40.417 20c0 10.77-8.72 19.5-19.475 19.5S1.468 30.77 1.468 20 10.188.5 20.942.5C31.698.5 40.418 9.23 40.418 20Z" stroke="#CDCDCD"/><ellipse cx="20.942" cy="20" rx="8.989" ry="9" fill="#68B738"/></g></symbol></svg>